<mxfile host="Electron" agent="Mozilla/5.0 (X11; Linux x86_64) AppleWebKit/537.36 (KHTML, like Gecko) draw.io/27.0.5 Chrome/134.0.6998.205 Electron/35.3.0 Safari/537.36" version="27.0.5">
  <diagram name="Страница 1" id="iZmvzMKgDoDC7Smftsxc">
    <mxGraphModel dx="2254" dy="-276" grid="1" gridSize="10" guides="1" tooltips="1" connect="1" arrows="1" fold="1" page="1" pageScale="1" pageWidth="827" pageHeight="1169" math="0" shadow="0">
      <root>
        <mxCell id="0" />
        <mxCell id="1" parent="0" />
        <mxCell id="FRCqEFteMWqTk38EWvlJ-1" value="" style="ellipse;whiteSpace=wrap;html=1;aspect=fixed;" parent="1" vertex="1">
          <mxGeometry x="-10" y="1169" width="751" height="751" as="geometry" />
        </mxCell>
        <mxCell id="FRCqEFteMWqTk38EWvlJ-2" value="" style="ellipse;whiteSpace=wrap;html=1;aspect=fixed;" parent="1" vertex="1">
          <mxGeometry x="90.5" y="1269.5" width="550" height="550" as="geometry" />
        </mxCell>
        <mxCell id="FRCqEFteMWqTk38EWvlJ-3" value="" style="ellipse;whiteSpace=wrap;html=1;aspect=fixed;" parent="1" vertex="1">
          <mxGeometry x="185.5" y="1364.5" width="360" height="360" as="geometry" />
        </mxCell>
        <mxCell id="FRCqEFteMWqTk38EWvlJ-4" value="" style="ellipse;whiteSpace=wrap;html=1;aspect=fixed;" parent="1" vertex="1">
          <mxGeometry x="287.75" y="1466.75" width="155.5" height="155.5" as="geometry" />
        </mxCell>
        <mxCell id="FRCqEFteMWqTk38EWvlJ-5" value="&lt;font color=&quot;#ffcccc&quot;&gt;&lt;span style=&quot;font-size: 21px;&quot;&gt;Устарело&lt;/span&gt;&lt;/font&gt;" style="text;html=1;strokeColor=none;fillColor=none;align=center;verticalAlign=middle;whiteSpace=wrap;rounded=0;fontColor=#99FF33;" parent="1" vertex="1">
          <mxGeometry x="330" y="1200" width="60" height="30" as="geometry" />
        </mxCell>
        <mxCell id="FRCqEFteMWqTk38EWvlJ-6" value="&lt;strong style=&quot;font-family: DeepSeek-CJK-patch, Inter, system-ui, -apple-system, BlinkMacSystemFont, &amp;quot;Segoe UI&amp;quot;, Roboto, &amp;quot;Noto Sans&amp;quot;, Ubuntu, Cantarell, &amp;quot;Helvetica Neue&amp;quot;, Oxygen, &amp;quot;Open Sans&amp;quot;, sans-serif; font-size: 21px; text-align: start; background-color: rgb(255, 255, 255);&quot;&gt;&lt;font&gt;Используем&lt;/font&gt;&lt;/strong&gt;" style="text;html=1;strokeColor=none;fillColor=none;align=center;verticalAlign=middle;whiteSpace=wrap;rounded=0;fontColor=#97D077;fontStyle=1;fontSize=41;" parent="1" vertex="1">
          <mxGeometry x="287.75" y="1530" width="154.5" height="50" as="geometry" />
        </mxCell>
        <mxCell id="FRCqEFteMWqTk38EWvlJ-7" value="&lt;strong style=&quot;font-family: DeepSeek-CJK-patch, Inter, system-ui, -apple-system, BlinkMacSystemFont, &amp;quot;Segoe UI&amp;quot;, Roboto, &amp;quot;Noto Sans&amp;quot;, Ubuntu, Cantarell, &amp;quot;Helvetica Neue&amp;quot;, Oxygen, &amp;quot;Open Sans&amp;quot;, sans-serif; text-align: start; background-color: rgb(255, 255, 255);&quot;&gt;&lt;font color=&quot;#cce5ff&quot; style=&quot;font-size: 21px;&quot;&gt;Внедряем&lt;/font&gt;&lt;/strong&gt;" style="text;html=1;strokeColor=none;fillColor=none;align=center;verticalAlign=middle;whiteSpace=wrap;rounded=0;fontSize=21;fontColor=#F7F794;" parent="1" vertex="1">
          <mxGeometry x="301" y="1410" width="130" height="40" as="geometry" />
        </mxCell>
        <mxCell id="FRCqEFteMWqTk38EWvlJ-8" value="&lt;strong style=&quot;font-family: DeepSeek-CJK-patch, Inter, system-ui, -apple-system, BlinkMacSystemFont, &amp;quot;Segoe UI&amp;quot;, Roboto, &amp;quot;Noto Sans&amp;quot;, Ubuntu, Cantarell, &amp;quot;Helvetica Neue&amp;quot;, Oxygen, &amp;quot;Open Sans&amp;quot;, sans-serif; text-align: start; background-color: rgb(255, 255, 255);&quot;&gt;&lt;font style=&quot;font-size: 21px;&quot;&gt;Оцениваем&lt;/font&gt;&lt;/strong&gt;" style="text;html=1;align=center;verticalAlign=middle;whiteSpace=wrap;rounded=0;fontSize=21;fontColor=#FF8000;" parent="1" vertex="1">
          <mxGeometry x="303.25" y="1300" width="140" height="50" as="geometry" />
        </mxCell>
        <mxCell id="FRCqEFteMWqTk38EWvlJ-9" value="" style="endArrow=none;html=1;rounded=0;fontSize=21;fontColor=#FFCCCC;entryX=0.5;entryY=0;entryDx=0;entryDy=0;exitX=0.5;exitY=1;exitDx=0;exitDy=0;strokeWidth=1;dashed=1;" parent="1" source="FRCqEFteMWqTk38EWvlJ-1" target="FRCqEFteMWqTk38EWvlJ-1" edge="1">
          <mxGeometry width="50" height="50" relative="1" as="geometry">
            <mxPoint x="390" y="1560" as="sourcePoint" />
            <mxPoint x="440" y="1510" as="targetPoint" />
          </mxGeometry>
        </mxCell>
        <mxCell id="FRCqEFteMWqTk38EWvlJ-10" value="" style="endArrow=none;html=1;rounded=0;fontSize=21;fontColor=#FFCCCC;exitX=0;exitY=0.5;exitDx=0;exitDy=0;entryX=1;entryY=0.5;entryDx=0;entryDy=0;dashed=1;" parent="1" source="FRCqEFteMWqTk38EWvlJ-1" target="FRCqEFteMWqTk38EWvlJ-1" edge="1">
          <mxGeometry width="50" height="50" relative="1" as="geometry">
            <mxPoint x="390" y="1560" as="sourcePoint" />
            <mxPoint x="440" y="1510" as="targetPoint" />
          </mxGeometry>
        </mxCell>
        <mxCell id="FRCqEFteMWqTk38EWvlJ-11" value="&lt;strong style=&quot;color: rgb(64, 64, 64); font-family: DeepSeek-CJK-patch, Inter, system-ui, -apple-system, BlinkMacSystemFont, &amp;quot;Segoe UI&amp;quot;, Roboto, &amp;quot;Noto Sans&amp;quot;, Ubuntu, Cantarell, &amp;quot;Helvetica Neue&amp;quot;, Oxygen, &amp;quot;Open Sans&amp;quot;, sans-serif; font-style: normal; font-variant-ligatures: normal; font-variant-caps: normal; letter-spacing: normal; orphans: 2; text-align: start; text-indent: 0px; text-transform: none; widows: 2; word-spacing: 0px; -webkit-text-stroke-width: 0px; background-color: rgb(255, 255, 255); text-decoration-thickness: initial; text-decoration-style: initial; text-decoration-color: initial;&quot;&gt;&lt;font style=&quot;font-size: 21px;&quot;&gt;Платформы и операции&lt;/font&gt;&lt;/strong&gt;" style="text;html=1;strokeColor=none;fillColor=none;align=center;verticalAlign=middle;whiteSpace=wrap;rounded=0;fontSize=21;fontColor=#000000;" parent="1" vertex="1">
          <mxGeometry x="-120" y="1190" width="200" height="60" as="geometry" />
        </mxCell>
        <mxCell id="FRCqEFteMWqTk38EWvlJ-12" value="&lt;div style=&quot;text-align: start;&quot;&gt;&lt;font face=&quot;DeepSeek-CJK-patch, Inter, system-ui, -apple-system, BlinkMacSystemFont, Segoe UI, Roboto, Noto Sans, Ubuntu, Cantarell, Helvetica Neue, Oxygen, Open Sans, sans-serif&quot; color=&quot;#404040&quot;&gt;&lt;span style=&quot;background-color: rgb(255, 255, 255);&quot;&gt;&lt;b&gt;Языки и фреймворки&lt;/b&gt;&lt;/span&gt;&lt;/font&gt;&lt;/div&gt;" style="text;html=1;strokeColor=none;fillColor=none;align=center;verticalAlign=middle;whiteSpace=wrap;rounded=0;fontSize=21;fontColor=#000000;" parent="1" vertex="1">
          <mxGeometry x="730" y="1179.5" width="200" height="60" as="geometry" />
        </mxCell>
        <mxCell id="FRCqEFteMWqTk38EWvlJ-13" value="&lt;div style=&quot;text-align: start;&quot;&gt;&lt;font face=&quot;DeepSeek-CJK-patch, Inter, system-ui, -apple-system, BlinkMacSystemFont, Segoe UI, Roboto, Noto Sans, Ubuntu, Cantarell, Helvetica Neue, Oxygen, Open Sans, sans-serif&quot; color=&quot;#404040&quot;&gt;&lt;span style=&quot;background-color: rgb(255, 255, 255);&quot;&gt;&lt;b&gt;Практики и паттерны&lt;/b&gt;&lt;/span&gt;&lt;/font&gt;&lt;/div&gt;" style="text;html=1;strokeColor=none;fillColor=none;align=center;verticalAlign=middle;whiteSpace=wrap;rounded=0;fontSize=21;fontColor=#000000;" parent="1" vertex="1">
          <mxGeometry x="-120" y="1819.5" width="200" height="60" as="geometry" />
        </mxCell>
        <mxCell id="FRCqEFteMWqTk38EWvlJ-14" value="&lt;div style=&quot;text-align: start;&quot;&gt;&lt;font face=&quot;DeepSeek-CJK-patch, Inter, system-ui, -apple-system, BlinkMacSystemFont, Segoe UI, Roboto, Noto Sans, Ubuntu, Cantarell, Helvetica Neue, Oxygen, Open Sans, sans-serif&quot; color=&quot;#404040&quot;&gt;&lt;span style=&quot;background-color: rgb(255, 255, 255);&quot;&gt;&lt;b&gt;Инструменты&lt;/b&gt;&lt;/span&gt;&lt;/font&gt;&lt;/div&gt;" style="text;html=1;strokeColor=none;fillColor=none;align=center;verticalAlign=middle;whiteSpace=wrap;rounded=0;fontSize=21;fontColor=#000000;" parent="1" vertex="1">
          <mxGeometry x="671" y="1819.5" width="200" height="60" as="geometry" />
        </mxCell>
        <mxCell id="FRCqEFteMWqTk38EWvlJ-15" value="SQL Server 2008" style="ellipse;whiteSpace=wrap;html=1;aspect=fixed;fontSize=10;fillColor=#f8cecc;strokeColor=#b85450;" parent="1" vertex="1">
          <mxGeometry x="70" y="1320" width="60.5" height="60.5" as="geometry" />
        </mxCell>
        <mxCell id="FRCqEFteMWqTk38EWvlJ-16" value="Apache Kafka" style="ellipse;whiteSpace=wrap;html=1;aspect=fixed;fontSize=10;fillColor=#dae8fc;strokeColor=#6c8ebf;" parent="1" vertex="1">
          <mxGeometry x="228.25" y="1440" width="60" height="60" as="geometry" />
        </mxCell>
        <mxCell id="FRCqEFteMWqTk38EWvlJ-22" value="&lt;span style=&quot;font-size: 10px;&quot;&gt;Kubernetes&lt;/span&gt;" style="ellipse;whiteSpace=wrap;html=1;aspect=fixed;fontSize=13;fillColor=#FF8000;strokeColor=#FF8000;" parent="1" vertex="1">
          <mxGeometry x="190" y="1340" width="60" height="60" as="geometry" />
        </mxCell>
        <mxCell id="FRCqEFteMWqTk38EWvlJ-25" value="1" style="ellipse;whiteSpace=wrap;html=1;aspect=fixed;fontSize=10;fillColor=#97D077;strokeColor=#97D077;" parent="1" vertex="1">
          <mxGeometry x="370" y="1480" width="20" height="20" as="geometry" />
        </mxCell>
        <mxCell id="FRCqEFteMWqTk38EWvlJ-26" value="2" style="ellipse;whiteSpace=wrap;html=1;aspect=fixed;fontSize=10;fillColor=#97D077;strokeColor=#97D077;" parent="1" vertex="1">
          <mxGeometry x="394" y="1480" width="20" height="20" as="geometry" />
        </mxCell>
        <mxCell id="FRCqEFteMWqTk38EWvlJ-27" value="3" style="ellipse;whiteSpace=wrap;html=1;aspect=fixed;fontSize=10;fillColor=#97D077;strokeColor=#97D077;" parent="1" vertex="1">
          <mxGeometry x="370" y="1510" width="20" height="20" as="geometry" />
        </mxCell>
        <mxCell id="FRCqEFteMWqTk38EWvlJ-28" value="1. Python" style="text;html=1;strokeColor=#82b366;fillColor=#97D077;align=center;verticalAlign=middle;whiteSpace=wrap;rounded=0;fontSize=10;" parent="1" vertex="1">
          <mxGeometry x="741" y="1239.5" width="60" height="30" as="geometry" />
        </mxCell>
        <mxCell id="FRCqEFteMWqTk38EWvlJ-31" value="2. Golang" style="text;html=1;strokeColor=#82b366;fillColor=#97D077;align=center;verticalAlign=middle;whiteSpace=wrap;rounded=0;fontSize=10;" parent="1" vertex="1">
          <mxGeometry x="811" y="1240" width="60" height="30" as="geometry" />
        </mxCell>
        <mxCell id="FRCqEFteMWqTk38EWvlJ-32" value="3. Java" style="text;html=1;strokeColor=#82b366;fillColor=#97D077;align=center;verticalAlign=middle;whiteSpace=wrap;rounded=0;fontSize=10;" parent="1" vertex="1">
          <mxGeometry x="741" y="1290" width="60" height="30" as="geometry" />
        </mxCell>
        <mxCell id="DSyMgDwmZhuR1rYSOm5y-3" value="4. React JS" style="text;html=1;strokeColor=#82b366;fillColor=#97D077;align=center;verticalAlign=middle;whiteSpace=wrap;rounded=0;fontSize=10;" vertex="1" parent="1">
          <mxGeometry x="811" y="1290" width="60" height="30" as="geometry" />
        </mxCell>
        <mxCell id="DSyMgDwmZhuR1rYSOm5y-4" value="4" style="ellipse;whiteSpace=wrap;html=1;aspect=fixed;fontSize=10;fillColor=#97D077;strokeColor=#97D077;" vertex="1" parent="1">
          <mxGeometry x="394" y="1510" width="20" height="20" as="geometry" />
        </mxCell>
        <mxCell id="DSyMgDwmZhuR1rYSOm5y-5" value="4. Microservices" style="text;html=1;strokeColor=#97D077;fillColor=#97D077;align=center;verticalAlign=middle;whiteSpace=wrap;rounded=0;fontSize=10;" vertex="1" parent="1">
          <mxGeometry x="-120" y="1879.5" width="80" height="30" as="geometry" />
        </mxCell>
        <mxCell id="DSyMgDwmZhuR1rYSOm5y-6" value="5. OAuth2" style="text;html=1;strokeColor=#97D077;fillColor=#97D077;align=center;verticalAlign=middle;whiteSpace=wrap;rounded=0;fontSize=10;" vertex="1" parent="1">
          <mxGeometry x="-120" y="1920" width="80" height="30" as="geometry" />
        </mxCell>
        <mxCell id="DSyMgDwmZhuR1rYSOm5y-7" value="6. RBAC" style="text;html=1;strokeColor=#97D077;fillColor=#97D077;align=center;verticalAlign=middle;whiteSpace=wrap;rounded=0;fontSize=10;" vertex="1" parent="1">
          <mxGeometry x="-120" y="1970" width="80" height="30" as="geometry" />
        </mxCell>
        <mxCell id="DSyMgDwmZhuR1rYSOm5y-8" value="4" style="ellipse;whiteSpace=wrap;html=1;aspect=fixed;fontSize=10;fillColor=#97D077;strokeColor=#97D077;" vertex="1" parent="1">
          <mxGeometry x="303.25" y="1570" width="20" height="20" as="geometry" />
        </mxCell>
        <mxCell id="DSyMgDwmZhuR1rYSOm5y-10" value="6" style="ellipse;whiteSpace=wrap;html=1;aspect=fixed;fontSize=10;fillColor=#97D077;strokeColor=#E1D5E7;" vertex="1" parent="1">
          <mxGeometry x="330" y="1570" width="20" height="20" as="geometry" />
        </mxCell>
        <mxCell id="DSyMgDwmZhuR1rYSOm5y-11" value="5" style="ellipse;whiteSpace=wrap;html=1;aspect=fixed;fontSize=10;fillColor=#97D077;strokeColor=#97D077;" vertex="1" parent="1">
          <mxGeometry x="340" y="1590" width="20" height="20" as="geometry" />
        </mxCell>
        <mxCell id="DSyMgDwmZhuR1rYSOm5y-12" value="PostgreSQL" style="ellipse;whiteSpace=wrap;html=1;aspect=fixed;fontSize=10;fillColor=#97D077;strokeColor=#97D077;" vertex="1" parent="1">
          <mxGeometry x="303.25" y="1480" width="56.75" height="56.75" as="geometry" />
        </mxCell>
        <mxCell id="DSyMgDwmZhuR1rYSOm5y-14" value="7. Apache Airflow" style="text;html=1;strokeColor=#97D077;fillColor=#97D077;align=center;verticalAlign=middle;whiteSpace=wrap;rounded=0;fontSize=10;" vertex="1" parent="1">
          <mxGeometry x="721" y="1890" width="80" height="30" as="geometry" />
        </mxCell>
        <mxCell id="DSyMgDwmZhuR1rYSOm5y-15" value="7" style="ellipse;whiteSpace=wrap;html=1;aspect=fixed;fontSize=10;fillColor=#97D077;strokeColor=#97D077;" vertex="1" parent="1">
          <mxGeometry x="370" y="1570" width="20" height="20" as="geometry" />
        </mxCell>
        <mxCell id="DSyMgDwmZhuR1rYSOm5y-17" value="DBT" style="ellipse;whiteSpace=wrap;html=1;aspect=fixed;fontSize=10;fillColor=#dae8fc;strokeColor=#6c8ebf;" vertex="1" parent="1">
          <mxGeometry x="414" y="1610" width="60" height="60" as="geometry" />
        </mxCell>
        <mxCell id="DSyMgDwmZhuR1rYSOm5y-18" value="8. Power BI" style="text;html=1;strokeColor=#97D077;fillColor=#97D077;align=center;verticalAlign=middle;whiteSpace=wrap;rounded=0;fontSize=10;" vertex="1" parent="1">
          <mxGeometry x="721" y="1940" width="80" height="30" as="geometry" />
        </mxCell>
        <mxCell id="DSyMgDwmZhuR1rYSOm5y-19" value="8" style="ellipse;whiteSpace=wrap;html=1;aspect=fixed;fontSize=10;fillColor=#97D077;strokeColor=#97D077;" vertex="1" parent="1">
          <mxGeometry x="394" y="1580" width="20" height="20" as="geometry" />
        </mxCell>
        <mxCell id="DSyMgDwmZhuR1rYSOm5y-20" value="Apache Camel" style="ellipse;whiteSpace=wrap;html=1;aspect=fixed;fontSize=10;fillColor=#f8cecc;strokeColor=#b85450;" vertex="1" parent="1">
          <mxGeometry x="580" y="1723" width="60.5" height="60.5" as="geometry" />
        </mxCell>
      </root>
    </mxGraphModel>
  </diagram>
</mxfile>
